<svg width="26" height="28" viewBox="0 0 26 28" fill="none" xmlns="http://www.w3.org/2000/svg">
<path d="M24.24 10L22.24 9.51L24.6 7.8C24.7051 7.72121 24.7936 7.62249 24.8605 7.50949C24.9274 7.39649 24.9714 7.27142 24.99 7.14142C25.0085 7.01142 25.0013 6.87903 24.9687 6.75182C24.9361 6.6246 24.8788 6.50506 24.8 6.4C24.7212 6.29494 24.6225 6.20643 24.5095 6.13952C24.3965 6.07262 24.2714 6.02862 24.1414 6.01005C24.0114 5.99148 23.879 5.99869 23.7518 6.03129C23.6246 6.06388 23.5051 6.12121 23.4 6.2L22.4 6.98L23 5.47C23.0644 5.31802 23.0901 5.15246 23.075 4.98811C23.0598 4.82375 23.0042 4.66571 22.9131 4.52807C22.822 4.39043 22.6982 4.27749 22.5529 4.1993C22.4075 4.12112 22.2451 4.08013 22.08 4.08H19.57L20 1.14C20.02 0.997234 20.0089 0.851827 19.9675 0.713743C19.9261 0.57566 19.8553 0.448166 19.76 0.34C19.6652 0.232058 19.5482 0.145815 19.4171 0.0871436C19.2859 0.0284721 19.1437 -0.00125041 19 -2.86884e-07H5C4.85802 0.000179509 4.7177 0.030593 4.58838 0.0892169C4.45906 0.147841 4.34371 0.233331 4.25 0.34C4.1547 0.448166 4.0839 0.57566 4.04248 0.713743C4.00105 0.851827 3.98997 0.997234 4.01 1.14L4.43 4.08H1.92C1.75495 4.08013 1.59249 4.12112 1.44713 4.1993C1.30177 4.27749 1.17802 4.39043 1.08692 4.52807C0.995826 4.66571 0.940213 4.82375 0.925046 4.98811C0.909879 5.15246 0.935629 5.31802 1 5.47L2.67 9.4C2.68474 9.44891 2.68474 9.50109 2.67 9.55L1 16.68C0.962911 16.8297 0.960967 16.986 0.994319 17.1366C1.02767 17.2872 1.09542 17.4281 1.19225 17.5482C1.28909 17.6683 1.4124 17.7643 1.55253 17.8288C1.69265 17.8933 1.84581 17.9245 2 17.92H3.5L2.5 24.53C2.4317 24.9563 2.45621 25.3922 2.57184 25.8082C2.68747 26.2241 2.8915 26.6102 3.17 26.94C3.43851 27.2574 3.77007 27.5155 4.14362 27.698C4.51718 27.8805 4.92459 27.9833 5.34 28H18.66C19.1042 28.0076 19.5445 27.9164 19.9492 27.7331C20.3539 27.5498 20.7128 27.2789 21 26.94C21.2785 26.6102 21.4825 26.2241 21.5982 25.8082C21.7138 25.3922 21.7383 24.9563 21.67 24.53L20.67 17.92H22.17C22.3242 17.9245 22.4773 17.8933 22.6175 17.8288C22.7576 17.7643 22.8809 17.6683 22.9777 17.5482C23.0746 17.4281 23.1423 17.2872 23.1757 17.1366C23.209 16.986 23.2071 16.8297 23.17 16.68L21.91 11.48L23.91 11.97L24 12C24.2652 12.0318 24.5322 11.957 24.7423 11.792C24.9523 11.6269 25.0882 11.3852 25.12 11.12C25.1518 10.8548 25.077 10.5878 24.912 10.3777C24.7469 10.1677 24.5052 10.0318 24.24 10V10ZM17.85 2L17.55 4.08H6.45L6.15 2H17.85ZM5.58 6.08H20.58L19.5 8.62C19.451 8.74363 19.4109 8.87063 19.38 9H4.63C4.6006 8.87023 4.56047 8.74312 4.51 8.62L3.43 6.08H5.58ZM19.42 25.65C19.3261 25.7598 19.2096 25.8479 19.0784 25.9083C18.9472 25.9687 18.8044 26 18.66 26H5.34C5.19556 26 5.05283 25.9687 4.92163 25.9083C4.79044 25.8479 4.67389 25.7598 4.58 25.65C4.48821 25.5402 4.42107 25.4119 4.38312 25.2739C4.34516 25.1359 4.33728 24.9913 4.36 24.85L5.45 17.92H18.55L19.64 24.85C19.6627 24.9913 19.6548 25.1359 19.6169 25.2739C19.5789 25.4119 19.5118 25.5402 19.42 25.65V25.65ZM19.42 15.92H3.19L4.39 11H19.61L20.81 15.92H19.42Z" fill="white"/>
</svg>
