<svg xmlns="http://www.w3.org/2000/svg" viewBox="0 0 32 40" x="0px" y="0px"><title> V60, coffee, espresso, tools. coffee tools,</title><g data-name="Layer 4"><path d="M28.24,12l-2-.49L28.6,9.8a1,1,0,1,0-1.2-1.6l-1,.78L27,7.47a1,1,0,0,0-.92-1.39H23.57L24,3.14a1,1,0,0,0-.24-.8A1,1,0,0,0,23,2H9a1,1,0,0,0-.75.34,1,1,0,0,0-.24.8l.42,2.94H5.92A1,1,0,0,0,5,7.47L6.67,11.4a.26.26,0,0,1,0,.15L5,18.68a1,1,0,0,0,1,1.24h1.5l-1,6.61a3,3,0,0,0,.67,2.41A3,3,0,0,0,9.34,30H22.66A3,3,0,0,0,25,28.94a3,3,0,0,0,.67-2.41l-1-6.61h1.5a1,1,0,0,0,1-1.24l-1.26-5.2,2,.49L28,14a1,1,0,0,0,.24-2ZM21.85,4l-.3,2.08H10.45L10.15,4ZM9.58,8.08h15l-1.08,2.54a2.78,2.78,0,0,0-.12.38H8.63a2.4,2.4,0,0,0-.12-.38L7.43,8.08ZM23.42,27.65a1,1,0,0,1-.76.35H9.34a1,1,0,0,1-.76-.35,1,1,0,0,1-.22-.8l1.09-6.93h13.1l1.09,6.93A1,1,0,0,1,23.42,27.65Zm0-9.73H7.19L8.39,13H23.61l1.2,4.92Z"/></g><text x="0" y="47" fill="#000000" font-size="5px" font-weight="bold" font-family="'Helvetica Neue', Helvetica, Arial-Unicode, Arial, Sans-serif">Created by Caesar Rizky Kurniawan</text><text x="0" y="52" fill="#000000" font-size="5px" font-weight="bold" font-family="'Helvetica Neue', Helvetica, Arial-Unicode, Arial, Sans-serif">from the Noun Project</text></svg>