<svg width="20" height="28" viewBox="0 0 20 28" fill="none" xmlns="http://www.w3.org/2000/svg">
<path d="M18.18 26H17V11C17 10.7348 16.8946 10.4804 16.7071 10.2929C16.5196 10.1054 16.2652 10 16 10V2H17.12C17.3852 2 17.6396 1.89464 17.8271 1.70711C18.0146 1.51957 18.12 1.26522 18.12 1C18.12 0.734784 18.0146 0.48043 17.8271 0.292893C17.6396 0.105357 17.3852 0 17.12 0H2.88C2.61478 0 2.36043 0.105357 2.17289 0.292893C1.98536 0.48043 1.88 0.734784 1.88 1C1.88 1.26522 1.98536 1.51957 2.17289 1.70711C2.36043 1.89464 2.61478 2 2.88 2H4V10C3.73478 10 3.48043 10.1054 3.29289 10.2929C3.10536 10.4804 3 10.7348 3 11V26H1.82C1.55478 26 1.30043 26.1054 1.11289 26.2929C0.925356 26.4804 0.82 26.7348 0.82 27C0.82 27.2652 0.925356 27.5196 1.11289 27.7071C1.30043 27.8946 1.55478 28 1.82 28H18.18C18.4452 28 18.6996 27.8946 18.8871 27.7071C19.0746 27.5196 19.18 27.2652 19.18 27C19.18 26.7348 19.0746 26.4804 18.8871 26.2929C18.6996 26.1054 18.4452 26 18.18 26ZM6 2H14V10H6V2ZM5 26V12H15V26H5ZM10.71 14.29C10.8037 14.383 10.8781 14.4936 10.9289 14.6154C10.9797 14.7373 11.0058 14.868 11.0058 15C11.0058 15.132 10.9797 15.2627 10.9289 15.3846C10.8781 15.5064 10.8037 15.617 10.71 15.71L10.56 15.83C10.5043 15.8678 10.4437 15.8981 10.38 15.92L10.2 16H10C9.86932 15.9984 9.74022 15.9712 9.62 15.92C9.49725 15.8724 9.3851 15.801 9.29 15.71C9.10727 15.5184 9.00368 15.2648 9 15C8.99555 14.9334 8.99555 14.8666 9 14.8C9.01095 14.7374 9.03117 14.6767 9.06 14.62C9.08189 14.5563 9.11215 14.4957 9.15 14.44C9.18692 14.3876 9.227 14.3375 9.27 14.29C9.3651 14.199 9.47725 14.1276 9.6 14.08C9.78463 13.999 9.98941 13.9758 10.1875 14.0132C10.3856 14.0507 10.5677 14.1472 10.71 14.29ZM10.71 18.29C10.8037 18.383 10.8781 18.4936 10.9289 18.6154C10.9797 18.7373 11.0058 18.868 11.0058 19C11.0058 19.132 10.9797 19.2627 10.9289 19.3846C10.8781 19.5064 10.8037 19.617 10.71 19.71C10.6625 19.753 10.6124 19.7931 10.56 19.83C10.5043 19.8678 10.4437 19.8981 10.38 19.92L10.2 20H10C9.86882 20.0034 9.73868 19.976 9.62 19.92C9.49725 19.8724 9.3851 19.801 9.29 19.71C9.24699 19.6625 9.20692 19.6124 9.17 19.56C9.13215 19.5043 9.10189 19.4437 9.08 19.38C9.0442 19.3245 9.01722 19.2638 9 19.2C8.99555 19.1334 8.99555 19.0666 9 19C9.00368 18.7352 9.10727 18.4816 9.29 18.29C9.3851 18.199 9.49725 18.1276 9.62 18.08C9.80102 17.9961 10.003 17.9682 10.2 18L10.38 18.06C10.4437 18.0819 10.5043 18.1122 10.56 18.15L10.71 18.29ZM10.71 22.29C10.8037 22.383 10.8781 22.4936 10.9289 22.6154C10.9797 22.7373 11.0058 22.868 11.0058 23C11.0058 23.132 10.9797 23.2627 10.9289 23.3846C10.8781 23.5064 10.8037 23.617 10.71 23.71C10.6625 23.753 10.6124 23.7931 10.56 23.83C10.5043 23.8678 10.4437 23.8981 10.38 23.92L10.2 24H10C9.86868 23.9869 9.74123 23.948 9.62493 23.8856C9.50863 23.8232 9.40575 23.7385 9.32218 23.6364C9.23861 23.5343 9.17597 23.4166 9.13785 23.2903C9.09973 23.1639 9.08687 23.0313 9.1 22.9C9.11313 22.7687 9.152 22.6412 9.21439 22.5249C9.27678 22.4086 9.36146 22.3058 9.4636 22.2222C9.56575 22.1386 9.68335 22.076 9.8097 22.0379C9.93605 21.9997 10.0687 21.9869 10.2 22L10.38 22.06C10.4437 22.0819 10.5043 22.1122 10.56 22.15L10.71 22.29Z" fill="white"/>
</svg>
