<svg xmlns="http://www.w3.org/2000/svg" viewBox="0 0 32 40" x="0px" y="0px"><title> Aero press, coffee, espresso, tools. coffee tools,</title><g data-name="Layer 13"><path d="M24.18,28H23V13a1,1,0,0,0-1-1V4h1.12a1,1,0,0,0,0-2H8.88a1,1,0,1,0,0,2H10v8a1,1,0,0,0-1,1V28H7.82a1,1,0,0,0,0,2H24.18a1,1,0,0,0,0-2ZM12,4h8v8H12ZM11,28V14H21V28Zm5.71-11.71a1,1,0,0,1,0,1.42l-.15.12a.76.76,0,0,1-.18.09L16.2,18,16,18a1,1,0,0,1-.38-.08,1,1,0,0,1-.33-.21A1.05,1.05,0,0,1,15,17a1.5,1.5,0,0,1,0-.2.64.64,0,0,1,.06-.18.76.76,0,0,1,.09-.18,1.58,1.58,0,0,1,.12-.15,1,1,0,0,1,.33-.21A1,1,0,0,1,16.71,16.29Zm0,4a1,1,0,0,1,0,1.42,1.58,1.58,0,0,1-.15.12.76.76,0,0,1-.18.09L16.2,22,16,22a.84.84,0,0,1-.38-.08,1,1,0,0,1-.33-.21,1.58,1.58,0,0,1-.12-.15.76.76,0,0,1-.09-.18A.64.64,0,0,1,15,21.2a1.5,1.5,0,0,1,0-.2,1.05,1.05,0,0,1,.29-.71,1,1,0,0,1,.33-.21A1,1,0,0,1,16.2,20l.18.06a.76.76,0,0,1,.18.09Zm0,4a1,1,0,0,1,0,1.42,1.58,1.58,0,0,1-.15.12.76.76,0,0,1-.18.09L16.2,26,16,26a1,1,0,1,1,.2-2l.18.06a.76.76,0,0,1,.18.09Z"/></g><text x="0" y="47" fill="#000000" font-size="5px" font-weight="bold" font-family="'Helvetica Neue', Helvetica, Arial-Unicode, Arial, Sans-serif">Created by Caesar Rizky Kurniawan</text><text x="0" y="52" fill="#000000" font-size="5px" font-weight="bold" font-family="'Helvetica Neue', Helvetica, Arial-Unicode, Arial, Sans-serif">from the Noun Project</text></svg>