<svg width="30" height="30" viewBox="0 0 30 30" fill="none" xmlns="http://www.w3.org/2000/svg">
<path d="M17.72 6.62001C17.16 7.17943 16.7785 7.89244 16.6239 8.66878C16.4693 9.44512 16.5485 10.2499 16.8515 10.9812C17.1545 11.7125 17.6677 12.3374 18.3261 12.7769C18.9844 13.2164 19.7584 13.4506 20.55 13.45C21.2076 13.4495 21.8549 13.2869 22.4346 12.9765C23.0144 12.6662 23.5086 12.2177 23.8737 11.6708C24.2388 11.1239 24.4634 10.4954 24.5277 9.84095C24.592 9.18652 24.4939 8.52634 24.2422 7.91885C23.9905 7.31135 23.5929 6.77529 23.0846 6.3581C22.5763 5.94091 21.973 5.65547 21.3281 5.52704C20.6832 5.39861 20.0165 5.43115 19.3872 5.62179C18.7579 5.81243 18.1852 6.15529 17.72 6.62001V6.62001ZM22 10.86C21.6207 11.2393 21.1064 11.4523 20.57 11.4523C20.0336 11.4523 19.5193 11.2393 19.14 10.86C18.7607 10.4807 18.5477 9.96636 18.5477 9.43001C18.5477 8.89365 18.7607 8.37926 19.14 8.00001C19.515 7.62808 20.0219 7.41958 20.55 7.42001C20.954 7.40726 21.3524 7.51721 21.6926 7.73539C22.0329 7.95356 22.2991 8.26972 22.4561 8.64218C22.613 9.01464 22.6535 9.42593 22.5721 9.82184C22.4907 10.2178 22.2912 10.5797 22 10.86V10.86ZM29.07 10.86L27.65 9.45001C27.6278 9.42461 27.6006 9.40417 27.57 9.39001C27.5518 7.55771 26.8158 5.80561 25.5201 4.50991C24.2244 3.21422 22.4723 2.47824 20.64 2.46001C20.6258 2.42942 20.6054 2.40216 20.58 2.38001L19.14 1.00001C17.87 -0.269995 15.6 0.300006 13.48 2.42001C11.36 4.54001 10.8 6.76001 12.07 8.00001L13.48 9.42001L13.57 9.47001C13.5711 10.2506 13.7064 11.0252 13.97 11.76L9.97 15.76C9.87703 15.6663 9.76643 15.5919 9.64457 15.5411C9.52271 15.4903 9.39201 15.4642 9.26 15.4642C9.12799 15.4642 8.99728 15.4903 8.87542 15.5411C8.75356 15.5919 8.64296 15.6663 8.55 15.76L1.46 22.88C0.709435 23.6306 0.287773 24.6485 0.287773 25.71C0.287773 26.2356 0.391294 26.756 0.592424 27.2416C0.793555 27.7272 1.08836 28.1684 1.46 28.54C1.83164 28.9116 2.27284 29.2064 2.75841 29.4076C3.24398 29.6087 3.76442 29.7122 4.29 29.7122C5.35145 29.7122 6.36943 29.2906 7.12 28.54L14.19 21.47C14.2837 21.377 14.3581 21.2664 14.4089 21.1446C14.4597 21.0227 14.4858 20.892 14.4858 20.76C14.4858 20.628 14.4597 20.4973 14.4089 20.3754C14.3581 20.2536 14.2837 20.143 14.19 20.05V20.05L18.19 16.05C18.9257 16.3111 19.6994 16.4496 20.48 16.46L20.53 16.53L22 17.93C22.2206 18.149 22.483 18.3211 22.7717 18.4363C23.0604 18.5514 23.3693 18.6071 23.68 18.6C25.2303 18.4439 26.6619 17.6995 27.68 16.52C28.4612 15.7702 29.0806 14.8683 29.5 13.87C29.7399 13.3786 29.8207 12.8246 29.7311 12.2851C29.6415 11.7456 29.3859 11.2475 29 10.86H29.07ZM24.09 5.91001C24.6729 6.4942 25.1022 7.2136 25.3395 8.00403C25.5768 8.79446 25.6148 9.63134 25.45 10.44C25.2594 11.4089 24.7862 12.2997 24.09 13C23.401 13.7007 22.5151 14.175 21.55 14.36C20.7407 14.5236 19.9036 14.4843 19.1132 14.2455C18.3229 14.0068 17.6039 13.576 17.0206 12.9917C16.4373 12.4074 16.0078 11.6877 15.7703 10.897C15.5329 10.1062 15.495 9.26898 15.66 8.46001C15.8357 7.49307 16.3033 6.60315 17 5.91001C17.6927 5.21435 18.577 4.74088 19.54 4.55001C19.869 4.48213 20.2041 4.44862 20.54 4.45001C21.1987 4.44751 21.8515 4.57522 22.4607 4.82577C23.0699 5.07632 23.6236 5.44479 24.09 5.91001V5.91001ZM14.9 3.79001C15.5546 3.01942 16.4491 2.49115 17.44 2.29001C17.4904 2.28445 17.5414 2.2896 17.5896 2.30511C17.6379 2.32062 17.6823 2.34614 17.72 2.38001L18.2 2.85001H18.13C17.8655 2.94461 17.6081 3.05824 17.36 3.19001L17.12 3.32001C16.92 3.43001 16.73 3.56001 16.54 3.69001L16.32 3.85001C16.0671 4.03367 15.8297 4.23768 15.61 4.46001C15.3933 4.68133 15.1896 4.91506 15 5.16001L14.84 5.39001C14.7107 5.57054 14.5906 5.75745 14.48 5.95001C14.48 6.04001 14.39 6.12001 14.34 6.21001C14.2096 6.46564 14.096 6.72954 14 7.00001V7.12001L13.52 6.64001C13.19 6.33001 13.6 5.08001 14.9 3.79001ZM5.7 27.12C5.31739 27.4477 4.82524 27.6189 4.32189 27.5994C3.81854 27.58 3.34106 27.3713 2.98487 27.0151C2.62868 26.6589 2.42002 26.1815 2.40057 25.6781C2.38113 25.1748 2.55234 24.6826 2.88 24.3L9.24 17.93L12.07 20.76L5.7 27.12ZM12.77 18.64L11.36 17.23L15 13.63C15.3902 14.1798 15.8703 14.6598 16.42 15.05L12.77 18.64ZM27.57 13.15C27.2571 13.9021 26.7944 14.5826 26.21 15.15C25.6581 15.7325 24.9951 16.1983 24.26 16.52C24.1 16.58 23.57 16.76 23.38 16.57L22.9 16C23.171 15.9055 23.435 15.7919 23.69 15.66L23.93 15.52C24.1272 15.4118 24.3175 15.2915 24.5 15.16L24.72 15C24.9702 14.813 25.2074 14.6092 25.43 14.39C25.6495 14.1678 25.8534 13.9305 26.04 13.68C26.099 13.6074 26.1525 13.5305 26.2 13.45C26.3293 13.2695 26.4494 13.0826 26.56 12.89L26.7 12.64C26.8276 12.3933 26.9411 12.1396 27.04 11.88V11.8L27.51 12.28C27.82 12.47 27.63 13 27.57 13.15Z" fill="white"/>
</svg>
