<svg xmlns="http://www.w3.org/2000/svg" viewBox="0 0 32 40" x="0px" y="0px"><title> espresso, coffee, espresso, tools. coffee tools,</title><g data-name="Layer 3"><path d="M18.72,7.62a4,4,0,0,0,2.83,6.83,4,4,0,1,0-2.83-6.83ZM23,11.86A2,2,0,1,1,20.14,9a2,2,0,0,1,1.41-.58A2,2,0,0,1,23,11.86Zm7.07,0-1.42-1.41a.24.24,0,0,0-.08-.06,7,7,0,0,0-6.93-6.93.24.24,0,0,0-.06-.08L20.14,2c-1.27-1.27-3.54-.7-5.66,1.42S11.8,7.76,13.07,9l1.41,1.42.09.05a6.81,6.81,0,0,0,.4,2.29l-4,4a1,1,0,0,0-1.42,0L2.46,23.88a4,4,0,0,0,5.66,5.66l7.07-7.07a1,1,0,0,0,0-1.42h0l4-4a7.13,7.13,0,0,0,2.29.41l.05.07L23,18.93a2.31,2.31,0,0,0,1.68.67,6.09,6.09,0,0,0,4-2.08,7.93,7.93,0,0,0,1.82-2.65A2.63,2.63,0,0,0,30,11.86ZM25.09,6.91a5,5,0,0,1,1.36,4.53h0A5,5,0,0,1,25.09,14a4.84,4.84,0,0,1-2.54,1.36,5,5,0,0,1-5.89-5.9A4.81,4.81,0,0,1,18,6.91a4.94,4.94,0,0,1,2.54-1.36,4.85,4.85,0,0,1,1-.1A5,5,0,0,1,25.09,6.91ZM15.9,4.79a4.51,4.51,0,0,1,2.54-1.5.36.36,0,0,1,.28.09l.48.47h0l-.07,0a5.82,5.82,0,0,0-.77.34l-.24.13c-.2.11-.39.24-.58.37l-.22.16a5.74,5.74,0,0,0-.71.61,8,8,0,0,0-.61.7l-.16.23a6.65,6.65,0,0,0-.36.56c0,.09-.09.17-.14.26A6.58,6.58,0,0,0,15,8l0,.12h0l-.48-.48C14.19,7.33,14.6,6.08,15.9,4.79ZM6.7,28.12A2,2,0,0,1,3.88,25.3l6.36-6.37,2.83,2.83Zm7.07-8.48-1.41-1.41L16,14.63a6,6,0,0,0,1.42,1.42Zm14.8-5.49a6,6,0,0,1-1.36,2,6,6,0,0,1-1.95,1.37c-.16.06-.69.24-.88.05L23.9,17h0l0,0a6.07,6.07,0,0,0,.79-.34l.24-.14a5.5,5.5,0,0,0,.57-.36l.22-.16a6.91,6.91,0,0,0,.71-.61,6.74,6.74,0,0,0,.61-.71,1.88,1.88,0,0,0,.16-.23,6.65,6.65,0,0,0,.36-.56l.14-.25a7.35,7.35,0,0,0,.34-.76l0-.08h0l.47.48C28.82,13.47,28.63,14,28.57,14.15Z"/></g><text x="0" y="47" fill="#000000" font-size="5px" font-weight="bold" font-family="'Helvetica Neue', Helvetica, Arial-Unicode, Arial, Sans-serif">Created by Caesar Rizky Kurniawan</text><text x="0" y="52" fill="#000000" font-size="5px" font-weight="bold" font-family="'Helvetica Neue', Helvetica, Arial-Unicode, Arial, Sans-serif">from the Noun Project</text></svg>