<svg xmlns="http://www.w3.org/2000/svg" viewBox="0 0 32 40" x="0px" y="0px"><title>Team Member</title><g data-name="Layer 21"><path d="M25.5,17.68a9.92,9.92,0,0,0-1.75-2.1,11.38,11.38,0,0,0-3.47-2.13,8.71,8.71,0,0,0,1.72-5c0-.1,0-.2,0-.3a4.32,4.32,0,0,0-.07-.74A6.62,6.62,0,0,0,20.17,3.8,5.83,5.83,0,0,0,16,2a5.69,5.69,0,0,0-3.94,1.59,6.49,6.49,0,0,0-2,4,3.08,3.08,0,0,0,0,.48,2.56,2.56,0,0,0,0,.37,8.74,8.74,0,0,0,1.72,5,10.81,10.81,0,0,0-5.21,4.2A9.4,9.4,0,0,0,5,22.75v3.41c0,1.55,1.17,3,3.12,3.76A1,1,0,0,0,8.5,30h15a1,1,0,0,0,.38-.08c1.95-.8,3.12-2.21,3.12-3.76V22.75A9.36,9.36,0,0,0,25.5,17.68ZM12,8.05s0-.11,0-.21A4.51,4.51,0,0,1,13.44,5,3.69,3.69,0,0,1,16,4a3.77,3.77,0,0,1,2.73,1.2A4.54,4.54,0,0,1,20,7.72a2.42,2.42,0,0,1,0,.47s0,.09,0,.12v.12a6.45,6.45,0,0,1-2.4,4.93,2.36,2.36,0,0,1-.38.24l0,0a4,4,0,0,1-2.18.05,2,2,0,0,1-.26-.09,3.37,3.37,0,0,1-.35-.22A6.45,6.45,0,0,1,12,8.43V8.32A1.23,1.23,0,0,0,12,8.05ZM25,26.16c0,.79-.85,1.45-1.71,1.84H8.71C7.85,27.61,7,27,7,26.16V22.75a7.24,7.24,0,0,1,1.2-4,8.83,8.83,0,0,1,4.94-3.66,7.83,7.83,0,0,0,.79.34,4.21,4.21,0,0,0,.79.32,4.48,4.48,0,0,0,1.28.2,4.69,4.69,0,0,0,1.52-.27,4.38,4.38,0,0,0,.5-.23,6.62,6.62,0,0,0,.83-.37,9.19,9.19,0,0,1,3.55,2,7.55,7.55,0,0,1,1.41,1.69,7.26,7.26,0,0,1,1.19,4Z"/></g><text x="0" y="47" fill="#000000" font-size="5px" font-weight="bold" font-family="'Helvetica Neue', Helvetica, Arial-Unicode, Arial, Sans-serif">Created by Caesar Rizky Kurniawan</text><text x="0" y="52" fill="#000000" font-size="5px" font-weight="bold" font-family="'Helvetica Neue', Helvetica, Arial-Unicode, Arial, Sans-serif">from the Noun Project</text></svg>