<svg width="32" height="40" viewBox="0 0 32 40" fill="none" xmlns="http://www.w3.org/2000/svg">
<g clip-path="url(#clip0)">
<path d="M24 22C25.5117 21.9815 26.9607 21.3931 28.0572 20.3523C29.1538 19.3116 29.817 17.8953 29.9143 16.3866C30.0116 14.8779 29.5358 13.3881 28.582 12.2151C27.6282 11.0422 26.2668 10.2725 24.77 10.06L25.07 7.06C25.0843 6.92132 25.0695 6.78118 25.0264 6.64857C24.9834 6.51597 24.913 6.39383 24.82 6.29C24.723 6.19365 24.6073 6.1182 24.48 6.06832C24.3528 6.01845 24.2166 5.99519 24.08 6H2.92C2.78046 6.00033 2.64253 6.02986 2.51508 6.0867C2.38764 6.14353 2.27349 6.22641 2.18 6.33C2.08696 6.43383 2.01665 6.55597 1.9736 6.68857C1.93054 6.82118 1.91569 6.96132 1.93 7.1L3.65 24H3C2.73478 24 2.48043 24.1054 2.29289 24.2929C2.10536 24.4804 2 24.7348 2 25C2 25.2652 2.10536 25.5196 2.29289 25.7071C2.48043 25.8946 2.73478 26 3 26H25C25.2652 26 25.5196 25.8946 25.7071 25.7071C25.8946 25.5196 26 25.2652 26 25C26 24.7348 25.8946 24.4804 25.7071 24.2929C25.5196 24.1054 25.2652 24 25 24H23.35L23.55 22H24ZM28 16C28 17.0609 27.5786 18.0783 26.8284 18.8284C26.0783 19.5786 25.0609 20 24 20H23.76L24.57 12.06C25.519 12.1966 26.3874 12.6696 27.017 13.3928C27.6465 14.1159 27.9954 15.0412 28 16V16ZM5.66 24L4 8H23L21.34 24H5.66Z" fill="white"/>
</g>
<defs>
<clipPath id="clip0">
<rect width="32" height="40" fill="white"/>
</clipPath>
</defs>
</svg>
