<svg xmlns="http://www.w3.org/2000/svg" viewBox="0 0 32 40" x="0px" y="0px"><title> scale glass, coffee, espresso, tools. coffee tools,</title><g data-name="Layer 11"><path d="M24,22a6,6,0,0,0,.77-11.94l.3-3a1,1,0,0,0-.25-.77A1,1,0,0,0,24.08,6H2.92a1,1,0,0,0-.74.33,1,1,0,0,0-.25.77L3.65,24H3a1,1,0,0,0,0,2H25a1,1,0,0,0,0-2H23.35l.2-2Zm4-6a4,4,0,0,1-4,4h-.24l.81-7.94A4,4,0,0,1,28,16ZM5.66,24,4,8H23L21.34,24Z"/></g><text x="0" y="47" fill="#000000" font-size="5px" font-weight="bold" font-family="'Helvetica Neue', Helvetica, Arial-Unicode, Arial, Sans-serif">Created by Caesar Rizky Kurniawan</text><text x="0" y="52" fill="#000000" font-size="5px" font-weight="bold" font-family="'Helvetica Neue', Helvetica, Arial-Unicode, Arial, Sans-serif">from the Noun Project</text></svg>